<svg width="303" height="40" viewBox="0 0 303 40" fill="none" xmlns="http://www.w3.org/2000/svg">
<path d="M13.824 4.92002C16.32 4.92002 18.48 5.27202 20.304 5.97602C22.16 6.68002 23.84 7.75202 25.344 9.19202L21.696 13.464C19.424 11.608 16.992 10.68 14.4 10.68C13.024 10.68 11.936 10.968 11.136 11.544C10.336 12.088 9.93601 12.888 9.93601 13.944C9.93601 14.68 10.112 15.288 10.464 15.768C10.816 16.216 11.44 16.648 12.336 17.064C13.232 17.48 14.576 17.976 16.368 18.552C19.76 19.64 22.256 20.984 23.856 22.584C25.456 24.152 26.256 26.392 26.256 29.304C26.256 31.384 25.728 33.224 24.672 34.824C23.616 36.392 22.096 37.624 20.112 38.52C18.128 39.384 15.776 39.816 13.056 39.816C10.336 39.816 7.92001 39.384 5.80801 38.52C3.72801 37.656 1.93601 36.504 0.432007 35.064L4.41601 30.696C5.69601 31.784 7.00801 32.6 8.35201 33.144C9.72801 33.688 11.216 33.96 12.816 33.96C14.448 33.96 15.728 33.608 16.656 32.904C17.616 32.168 18.096 31.16 18.096 29.88C18.096 29.048 17.92 28.36 17.568 27.816C17.216 27.24 16.608 26.728 15.744 26.28C14.88 25.832 13.632 25.352 12 24.84C8.32001 23.72 5.69601 22.344 4.12801 20.712C2.59201 19.08 1.82401 17.016 1.82401 14.52C1.82401 12.6 2.33601 10.92 3.36001 9.48002C4.38401 8.00802 5.80801 6.88802 7.63201 6.12002C9.45601 5.32002 11.52 4.92002 13.824 4.92002Z" fill="#141414"/>
<path d="M50.7008 31.608C50.7008 32.568 50.8288 33.272 51.0848 33.72C51.3728 34.168 51.8208 34.504 52.4288 34.728L50.8448 39.672C49.2768 39.544 47.9968 39.208 47.0048 38.664C46.0128 38.088 45.2448 37.192 44.7008 35.976C43.0368 38.536 40.4768 39.816 37.0208 39.816C34.4928 39.816 32.4768 39.08 30.9728 37.608C29.4688 36.136 28.7168 34.216 28.7168 31.848C28.7168 29.064 29.7408 26.936 31.7888 25.464C33.8368 23.992 36.7968 23.256 40.6688 23.256H43.2608V22.152C43.2608 20.648 42.9408 19.624 42.3008 19.08C41.6608 18.504 40.5408 18.216 38.9408 18.216C38.1088 18.216 37.1008 18.344 35.9168 18.6C34.7328 18.824 33.5168 19.144 32.2688 19.56L30.5408 14.568C32.1408 13.96 33.7728 13.496 35.4368 13.176C37.1328 12.856 38.7008 12.696 40.1408 12.696C43.7888 12.696 46.4608 13.448 48.1568 14.952C49.8528 16.456 50.7008 18.712 50.7008 21.72V31.608ZM39.2288 34.392C40.9568 34.392 42.3008 33.576 43.2608 31.944V27.432H41.3888C39.6608 27.432 38.3648 27.736 37.5008 28.344C36.6688 28.952 36.2528 29.896 36.2528 31.176C36.2528 32.2 36.5088 33 37.0208 33.576C37.5648 34.12 38.3008 34.392 39.2288 34.392Z" fill="#141414"/>
<path d="M84.9176 12.696C86.9336 12.696 88.5496 13.384 89.7656 14.76C90.9816 16.104 91.5896 17.976 91.5896 20.376V39H84.0056V21.672C84.0056 19.4 83.2856 18.264 81.8456 18.264C81.0456 18.264 80.3416 18.536 79.7336 19.08C79.1256 19.624 78.5336 20.456 77.9576 21.576V39H70.3736V21.672C70.3736 19.4 69.6536 18.264 68.2136 18.264C67.4456 18.264 66.7416 18.552 66.1016 19.128C65.4936 19.672 64.9016 20.488 64.3256 21.576V39H56.7416V13.512H63.3656L63.8936 16.488C64.8856 15.208 65.9736 14.264 67.1576 13.656C68.3736 13.016 69.7496 12.696 71.2856 12.696C72.7256 12.696 73.9576 13.048 74.9816 13.752C76.0376 14.456 76.8056 15.448 77.2856 16.728C78.3096 15.352 79.4296 14.344 80.6456 13.704C81.8936 13.032 83.3176 12.696 84.9176 12.696Z" fill="#141414"/>
<path d="M104.873 13.512V39H97.2885V13.512H104.873ZM101.033 0.0720215C102.345 0.0720215 103.417 0.488022 104.249 1.32002C105.113 2.12002 105.545 3.14402 105.545 4.39202C105.545 5.64002 105.113 6.68002 104.249 7.51202C103.417 8.31202 102.345 8.71202 101.033 8.71202C99.7205 8.71202 98.6485 8.31202 97.8165 7.51202C96.9845 6.68002 96.5685 5.64002 96.5685 4.39202C96.5685 3.14402 96.9845 2.12002 97.8165 1.32002C98.6485 0.488022 99.7205 0.0720215 101.033 0.0720215Z" fill="#141414"/>
<path d="M124.659 12.792C125.587 12.792 126.435 12.904 127.203 13.128L126.003 20.472C125.043 20.248 124.275 20.136 123.699 20.136C122.195 20.136 121.043 20.664 120.243 21.72C119.475 22.744 118.867 24.296 118.419 26.376V39H110.835V13.512H117.459L118.083 18.456C118.659 16.696 119.523 15.32 120.675 14.328C121.859 13.304 123.187 12.792 124.659 12.792Z" fill="#141414"/>
<path d="M148.67 31.608C148.67 32.568 148.798 33.272 149.054 33.72C149.342 34.168 149.79 34.504 150.398 34.728L148.814 39.672C147.246 39.544 145.966 39.208 144.974 38.664C143.982 38.088 143.214 37.192 142.67 35.976C141.006 38.536 138.446 39.816 134.99 39.816C132.462 39.816 130.446 39.08 128.942 37.608C127.438 36.136 126.686 34.216 126.686 31.848C126.686 29.064 127.71 26.936 129.758 25.464C131.806 23.992 134.766 23.256 138.638 23.256H141.23V22.152C141.23 20.648 140.91 19.624 140.27 19.08C139.63 18.504 138.51 18.216 136.91 18.216C136.078 18.216 135.07 18.344 133.886 18.6C132.702 18.824 131.486 19.144 130.238 19.56L128.51 14.568C130.11 13.96 131.742 13.496 133.406 13.176C135.102 12.856 136.67 12.696 138.11 12.696C141.758 12.696 144.43 13.448 146.126 14.952C147.822 16.456 148.67 18.712 148.67 21.72V31.608ZM137.198 34.392C138.926 34.392 140.27 33.576 141.23 31.944V27.432H139.358C137.63 27.432 136.334 27.736 135.47 28.344C134.638 28.952 134.222 29.896 134.222 31.176C134.222 32.2 134.478 33 134.99 33.576C135.534 34.12 136.27 34.392 137.198 34.392Z" fill="#141414"/>
<path d="M179.829 4.92002C181.909 4.92002 183.749 5.22402 185.349 5.83202C186.981 6.44002 188.517 7.35202 189.957 8.56802L186.213 13.032C185.221 12.264 184.245 11.688 183.285 11.304C182.325 10.92 181.301 10.728 180.213 10.728C177.973 10.728 176.197 11.672 174.885 13.56C173.605 15.448 172.965 18.36 172.965 22.296C172.965 26.168 173.605 29.048 174.885 30.936C176.197 32.792 178.005 33.72 180.309 33.72C181.525 33.72 182.629 33.496 183.621 33.048C184.613 32.568 185.685 31.896 186.837 31.032L190.341 35.544C189.093 36.792 187.573 37.816 185.781 38.616C184.021 39.416 182.069 39.816 179.925 39.816C176.853 39.816 174.181 39.144 171.909 37.8C169.637 36.456 167.861 34.472 166.581 31.848C165.333 29.192 164.709 26.008 164.709 22.296C164.709 18.68 165.349 15.56 166.629 12.936C167.941 10.312 169.733 8.32802 172.005 6.98402C174.309 5.60802 176.917 4.92002 179.829 4.92002Z" fill="#141414"/>
<path d="M213.498 31.608C213.498 32.568 213.626 33.272 213.882 33.72C214.17 34.168 214.618 34.504 215.226 34.728L213.642 39.672C212.074 39.544 210.794 39.208 209.802 38.664C208.81 38.088 208.042 37.192 207.498 35.976C205.834 38.536 203.274 39.816 199.818 39.816C197.29 39.816 195.274 39.08 193.77 37.608C192.266 36.136 191.514 34.216 191.514 31.848C191.514 29.064 192.538 26.936 194.586 25.464C196.634 23.992 199.594 23.256 203.466 23.256H206.058V22.152C206.058 20.648 205.738 19.624 205.098 19.08C204.458 18.504 203.338 18.216 201.738 18.216C200.906 18.216 199.898 18.344 198.714 18.6C197.53 18.824 196.314 19.144 195.066 19.56L193.338 14.568C194.938 13.96 196.57 13.496 198.234 13.176C199.93 12.856 201.498 12.696 202.938 12.696C206.586 12.696 209.258 13.448 210.954 14.952C212.65 16.456 213.498 18.712 213.498 21.72V31.608ZM202.026 34.392C203.754 34.392 205.098 33.576 206.058 31.944V27.432H204.186C202.458 27.432 201.162 27.736 200.298 28.344C199.466 28.952 199.05 29.896 199.05 31.176C199.05 32.2 199.306 33 199.818 33.576C200.362 34.12 201.098 34.392 202.026 34.392Z" fill="#141414"/>
<path d="M228.046 12.696C229.87 12.696 231.582 12.968 233.182 13.512C234.782 14.056 236.19 14.824 237.406 15.816L234.622 20.088C232.542 18.776 230.446 18.12 228.334 18.12C227.342 18.12 226.574 18.296 226.03 18.648C225.518 18.968 225.262 19.432 225.262 20.04C225.262 20.52 225.374 20.92 225.598 21.24C225.854 21.528 226.35 21.832 227.086 22.152C227.822 22.472 228.958 22.856 230.494 23.304C233.15 24.072 235.118 25.08 236.398 26.328C237.71 27.544 238.366 29.24 238.366 31.416C238.366 33.144 237.87 34.648 236.878 35.928C235.886 37.176 234.526 38.136 232.798 38.808C231.07 39.48 229.15 39.816 227.038 39.816C224.894 39.816 222.894 39.48 221.038 38.808C219.214 38.136 217.662 37.208 216.382 36.024L220.078 31.896C222.222 33.56 224.478 34.392 226.846 34.392C227.998 34.392 228.894 34.184 229.534 33.768C230.206 33.352 230.542 32.76 230.542 31.992C230.542 31.384 230.414 30.904 230.158 30.552C229.902 30.2 229.406 29.88 228.67 29.592C227.934 29.272 226.766 28.888 225.166 28.44C222.638 27.704 220.75 26.68 219.502 25.368C218.254 24.056 217.63 22.424 217.63 20.472C217.63 19 218.046 17.688 218.878 16.536C219.742 15.352 220.958 14.424 222.526 13.752C224.126 13.048 225.966 12.696 228.046 12.696Z" fill="#141414"/>
<path d="M258.257 37.8C257.329 38.44 256.241 38.936 254.993 39.288C253.777 39.64 252.561 39.816 251.345 39.816C245.777 39.784 242.993 36.712 242.993 30.6V18.792H239.393V13.512H242.993V7.99202L250.577 7.12802V13.512H256.433L255.617 18.792H250.577V30.504C250.577 31.688 250.769 32.536 251.153 33.048C251.537 33.56 252.145 33.816 252.977 33.816C253.841 33.816 254.753 33.544 255.713 33L258.257 37.8Z" fill="#141414"/>
<path d="M274.613 12.792C275.541 12.792 276.388 12.904 277.156 13.128L275.957 20.472C274.997 20.248 274.228 20.136 273.652 20.136C272.148 20.136 270.997 20.664 270.197 21.72C269.429 22.744 268.82 24.296 268.372 26.376V39H260.789V13.512H267.413L268.036 18.456C268.612 16.696 269.477 15.32 270.629 14.328C271.813 13.304 273.141 12.792 274.613 12.792Z" fill="#141414"/>
<path d="M289.641 12.696C293.545 12.696 296.601 13.896 298.809 16.296C301.017 18.664 302.121 21.992 302.121 26.28C302.121 29 301.609 31.384 300.585 33.432C299.593 35.448 298.153 37.016 296.265 38.136C294.409 39.256 292.201 39.816 289.641 39.816C285.769 39.816 282.713 38.632 280.473 36.264C278.265 33.864 277.161 30.52 277.161 26.232C277.161 23.512 277.657 21.144 278.649 19.128C279.673 17.08 281.113 15.496 282.969 14.376C284.857 13.256 287.081 12.696 289.641 12.696ZM289.641 18.264C288.105 18.264 286.953 18.92 286.185 20.232C285.417 21.512 285.033 23.512 285.033 26.232C285.033 29.016 285.401 31.048 286.137 32.328C286.905 33.608 288.073 34.248 289.641 34.248C291.177 34.248 292.329 33.608 293.097 32.328C293.865 31.016 294.249 29 294.249 26.28C294.249 23.496 293.865 21.464 293.097 20.184C292.361 18.904 291.209 18.264 289.641 18.264Z" fill="#141414"/>
</svg>
